<?xml version="1.0" standalone="no"?>
<!DOCTYPE svg PUBLIC "-//W3C//DTD SVG 20010904//EN"
 "http://www.w3.org/TR/2001/REC-SVG-20010904/DTD/svg10.dtd">
<svg version="1.0" xmlns="http://www.w3.org/2000/svg"
 width="550.000000pt" height="300.000000pt" viewBox="0 0 550.000000 300.000000"
 preserveAspectRatio="xMidYMid meet">

<g transform="translate(0.000000,300.000000) scale(0.100000,-0.100000)"
fill="#000000" stroke="none">
<path d="M10 2495 l0 -504 553 -3 552 -3 76 -36 c202 -97 309 -333 309 -684 0
-347 129 -661 369 -899 179 -179 390 -290 656 -347 79 -17 371 -17 450 0 401
86 713 320 890 667 78 152 135 369 135 513 0 117 19 297 41 391 48 207 148
331 308 381 59 18 96 19 602 19 l539 0 0 505 0 505 -2740 0 -2740 0 0 -505z"/>
</g>
</svg>
